<mxfile host="app.diagrams.net" agent="Mozilla/5.0 (Windows NT 10.0; Win64; x64) AppleWebKit/537.36 (KHTML, like Gecko) Chrome/132.0.0.0 Safari/537.36 Edg/132.0.0.0" version="26.0.10">
  <diagram name="Page-1" id="JOta8-_nuycch0h57oxw">
    <mxGraphModel dx="983" dy="579" grid="1" gridSize="10" guides="1" tooltips="1" connect="1" arrows="1" fold="1" page="1" pageScale="1" pageWidth="850" pageHeight="1100" math="0" shadow="0">
      <root>
        <mxCell id="0" />
        <mxCell id="1" parent="0" />
        <mxCell id="fppiFULrpzGowXoUiGGQ-3" style="edgeStyle=orthogonalEdgeStyle;rounded=0;orthogonalLoop=1;jettySize=auto;html=1;entryX=0;entryY=0.5;entryDx=0;entryDy=0;" edge="1" parent="1" target="fppiFULrpzGowXoUiGGQ-2">
          <mxGeometry relative="1" as="geometry">
            <mxPoint x="90" y="43" as="sourcePoint" />
            <Array as="points">
              <mxPoint x="150" y="43" />
            </Array>
          </mxGeometry>
        </mxCell>
        <mxCell id="fppiFULrpzGowXoUiGGQ-2" value="NOT" style="triangle;whiteSpace=wrap;html=1;" vertex="1" parent="1">
          <mxGeometry x="210" y="5" width="70" height="80" as="geometry" />
        </mxCell>
        <mxCell id="fppiFULrpzGowXoUiGGQ-4" value="&lt;b&gt;&lt;font style=&quot;font-size: 24px;&quot;&gt;c&lt;/font&gt;&lt;/b&gt;" style="text;html=1;align=center;verticalAlign=middle;whiteSpace=wrap;rounded=0;" vertex="1" parent="1">
          <mxGeometry x="40" y="28" width="60" height="30" as="geometry" />
        </mxCell>
        <mxCell id="fppiFULrpzGowXoUiGGQ-7" value="" style="ellipse;whiteSpace=wrap;html=1;aspect=fixed;" vertex="1" parent="1">
          <mxGeometry x="280" y="40" width="10" height="10" as="geometry" />
        </mxCell>
        <mxCell id="fppiFULrpzGowXoUiGGQ-17" value="" style="endArrow=none;html=1;rounded=0;curved=1;strokeColor=default;fontStyle=2" edge="1" parent="1">
          <mxGeometry width="50" height="50" relative="1" as="geometry">
            <mxPoint x="410" y="435" as="sourcePoint" />
            <mxPoint x="410" y="365" as="targetPoint" />
            <Array as="points">
              <mxPoint x="440" y="385" />
            </Array>
          </mxGeometry>
        </mxCell>
        <mxCell id="fppiFULrpzGowXoUiGGQ-20" value="" style="ellipse;whiteSpace=wrap;html=1;aspect=fixed;" vertex="1" parent="1">
          <mxGeometry x="280" y="315" width="10" height="10" as="geometry" />
        </mxCell>
        <mxCell id="fppiFULrpzGowXoUiGGQ-21" value="NAND" style="shape=or;whiteSpace=wrap;html=1;" vertex="1" parent="1">
          <mxGeometry x="220" y="280" width="60" height="80" as="geometry" />
        </mxCell>
        <mxCell id="fppiFULrpzGowXoUiGGQ-25" value="" style="endArrow=none;html=1;rounded=0;curved=1;strokeColor=default;fontStyle=2" edge="1" parent="1">
          <mxGeometry width="50" height="50" relative="1" as="geometry">
            <mxPoint x="474" y="103" as="sourcePoint" />
            <mxPoint x="474" y="33" as="targetPoint" />
            <Array as="points">
              <mxPoint x="504" y="53" />
            </Array>
          </mxGeometry>
        </mxCell>
        <mxCell id="fppiFULrpzGowXoUiGGQ-37" value="&lt;b&gt;&lt;font style=&quot;font-size: 24px;&quot;&gt;a&lt;/font&gt;&lt;/b&gt;" style="text;html=1;align=center;verticalAlign=middle;resizable=0;points=[];autosize=1;strokeColor=none;fillColor=none;" vertex="1" parent="1">
          <mxGeometry x="34" y="151" width="40" height="40" as="geometry" />
        </mxCell>
        <mxCell id="fppiFULrpzGowXoUiGGQ-38" value="&lt;b&gt;&lt;font style=&quot;font-size: 24px;&quot;&gt;b&lt;/font&gt;&lt;/b&gt;" style="text;html=1;align=center;verticalAlign=middle;resizable=0;points=[];autosize=1;strokeColor=none;fillColor=none;" vertex="1" parent="1">
          <mxGeometry x="60" y="191" width="40" height="40" as="geometry" />
        </mxCell>
        <mxCell id="fppiFULrpzGowXoUiGGQ-117" style="edgeStyle=orthogonalEdgeStyle;rounded=0;orthogonalLoop=1;jettySize=auto;html=1;exitDx=0;exitDy=0;exitPerimeter=0;entryX=0.25;entryY=0.5;entryDx=0;entryDy=0;entryPerimeter=0;" edge="1" parent="1" source="fppiFULrpzGowXoUiGGQ-122">
          <mxGeometry relative="1" as="geometry">
            <mxPoint x="501.25" y="70" as="targetPoint" />
            <mxPoint x="315" y="194" as="sourcePoint" />
            <Array as="points">
              <mxPoint x="410" y="194" />
              <mxPoint x="410" y="74" />
              <mxPoint x="480" y="74" />
              <mxPoint x="480" y="70" />
            </Array>
          </mxGeometry>
        </mxCell>
        <mxCell id="fppiFULrpzGowXoUiGGQ-82" value="OR" style="shape=xor;whiteSpace=wrap;html=1;" vertex="1" parent="1">
          <mxGeometry x="255" y="150" width="60" height="80" as="geometry" />
        </mxCell>
        <mxCell id="fppiFULrpzGowXoUiGGQ-118" style="edgeStyle=orthogonalEdgeStyle;rounded=0;orthogonalLoop=1;jettySize=auto;html=1;exitX=1;exitY=0;exitDx=0;exitDy=0;entryX=0.175;entryY=0.25;entryDx=0;entryDy=0;entryPerimeter=0;" edge="1" parent="1" source="fppiFULrpzGowXoUiGGQ-20" target="fppiFULrpzGowXoUiGGQ-83">
          <mxGeometry relative="1" as="geometry">
            <Array as="points">
              <mxPoint x="289" y="380" />
            </Array>
          </mxGeometry>
        </mxCell>
        <mxCell id="fppiFULrpzGowXoUiGGQ-83" value="XOR" style="shape=xor;whiteSpace=wrap;html=1;" vertex="1" parent="1">
          <mxGeometry x="425" y="360" width="60" height="80" as="geometry" />
        </mxCell>
        <mxCell id="fppiFULrpzGowXoUiGGQ-113" style="edgeStyle=orthogonalEdgeStyle;rounded=0;orthogonalLoop=1;jettySize=auto;html=1;exitX=1;exitY=1;exitDx=0;exitDy=0;entryX=0.175;entryY=0.25;entryDx=0;entryDy=0;entryPerimeter=0;" edge="1" parent="1" source="fppiFULrpzGowXoUiGGQ-7" target="fppiFULrpzGowXoUiGGQ-84">
          <mxGeometry relative="1" as="geometry">
            <Array as="points">
              <mxPoint x="289" y="46" />
              <mxPoint x="380" y="46" />
              <mxPoint x="480" y="45" />
            </Array>
          </mxGeometry>
        </mxCell>
        <mxCell id="fppiFULrpzGowXoUiGGQ-127" style="edgeStyle=orthogonalEdgeStyle;rounded=0;orthogonalLoop=1;jettySize=auto;html=1;exitX=1;exitY=0.5;exitDx=0;exitDy=0;exitPerimeter=0;" edge="1" parent="1" source="fppiFULrpzGowXoUiGGQ-84">
          <mxGeometry relative="1" as="geometry">
            <mxPoint x="670" y="66" as="targetPoint" />
          </mxGeometry>
        </mxCell>
        <mxCell id="fppiFULrpzGowXoUiGGQ-84" value="XOR" style="shape=xor;whiteSpace=wrap;html=1;" vertex="1" parent="1">
          <mxGeometry x="485" y="26" width="65" height="80" as="geometry" />
        </mxCell>
        <mxCell id="fppiFULrpzGowXoUiGGQ-92" style="edgeStyle=orthogonalEdgeStyle;rounded=0;orthogonalLoop=1;jettySize=auto;html=1;exitDx=0;exitDy=0;exitPerimeter=0;entryX=0.175;entryY=0.25;entryDx=0;entryDy=0;entryPerimeter=0;" edge="1" parent="1" source="fppiFULrpzGowXoUiGGQ-96" target="fppiFULrpzGowXoUiGGQ-82">
          <mxGeometry relative="1" as="geometry" />
        </mxCell>
        <mxCell id="fppiFULrpzGowXoUiGGQ-93" style="edgeStyle=orthogonalEdgeStyle;rounded=0;orthogonalLoop=1;jettySize=auto;html=1;exitDx=0;exitDy=0;exitPerimeter=0;entryX=0.175;entryY=0.75;entryDx=0;entryDy=0;entryPerimeter=0;" edge="1" parent="1" source="fppiFULrpzGowXoUiGGQ-98" target="fppiFULrpzGowXoUiGGQ-82">
          <mxGeometry relative="1" as="geometry" />
        </mxCell>
        <mxCell id="fppiFULrpzGowXoUiGGQ-101" value="" style="edgeStyle=orthogonalEdgeStyle;rounded=0;orthogonalLoop=1;jettySize=auto;html=1;exitX=0.95;exitY=0.448;exitDx=0;exitDy=0;exitPerimeter=0;entryDx=0;entryDy=0;entryPerimeter=0;" edge="1" parent="1" source="fppiFULrpzGowXoUiGGQ-37" target="fppiFULrpzGowXoUiGGQ-96">
          <mxGeometry relative="1" as="geometry">
            <mxPoint x="72" y="169" as="sourcePoint" />
            <mxPoint x="266" y="170" as="targetPoint" />
          </mxGeometry>
        </mxCell>
        <mxCell id="fppiFULrpzGowXoUiGGQ-96" value="" style="shape=waypoint;sketch=0;size=6;pointerEvents=1;points=[];fillColor=none;resizable=0;rotatable=0;perimeter=centerPerimeter;snapToPoint=1;" vertex="1" parent="1">
          <mxGeometry x="170" y="161" width="20" height="20" as="geometry" />
        </mxCell>
        <mxCell id="fppiFULrpzGowXoUiGGQ-102" value="" style="edgeStyle=orthogonalEdgeStyle;rounded=0;orthogonalLoop=1;jettySize=auto;html=1;exitX=1.029;exitY=0.469;exitDx=0;exitDy=0;exitPerimeter=0;entryDx=0;entryDy=0;entryPerimeter=0;" edge="1" parent="1" source="fppiFULrpzGowXoUiGGQ-38" target="fppiFULrpzGowXoUiGGQ-98">
          <mxGeometry relative="1" as="geometry">
            <mxPoint x="101" y="210" as="sourcePoint" />
            <mxPoint x="266" y="210" as="targetPoint" />
          </mxGeometry>
        </mxCell>
        <mxCell id="fppiFULrpzGowXoUiGGQ-98" value="" style="shape=waypoint;sketch=0;size=6;pointerEvents=1;points=[];fillColor=none;resizable=0;rotatable=0;perimeter=centerPerimeter;snapToPoint=1;" vertex="1" parent="1">
          <mxGeometry x="140" y="201" width="20" height="20" as="geometry" />
        </mxCell>
        <mxCell id="fppiFULrpzGowXoUiGGQ-103" style="edgeStyle=orthogonalEdgeStyle;rounded=0;orthogonalLoop=1;jettySize=auto;html=1;exitDx=0;exitDy=0;exitPerimeter=0;entryX=0;entryY=0.25;entryDx=0;entryDy=0;entryPerimeter=0;" edge="1" parent="1" source="fppiFULrpzGowXoUiGGQ-99" target="fppiFULrpzGowXoUiGGQ-21">
          <mxGeometry relative="1" as="geometry">
            <mxPoint x="171" y="171" as="sourcePoint" />
            <mxPoint x="211" y="300" as="targetPoint" />
            <Array as="points">
              <mxPoint x="180" y="300" />
            </Array>
          </mxGeometry>
        </mxCell>
        <mxCell id="fppiFULrpzGowXoUiGGQ-104" style="edgeStyle=orthogonalEdgeStyle;rounded=0;orthogonalLoop=1;jettySize=auto;html=1;exitDx=0;exitDy=0;exitPerimeter=0;entryX=0;entryY=0.75;entryDx=0;entryDy=0;entryPerimeter=0;" edge="1" parent="1" source="fppiFULrpzGowXoUiGGQ-100" target="fppiFULrpzGowXoUiGGQ-21">
          <mxGeometry relative="1" as="geometry">
            <Array as="points">
              <mxPoint x="150" y="340" />
            </Array>
          </mxGeometry>
        </mxCell>
        <mxCell id="fppiFULrpzGowXoUiGGQ-105" value="OR" style="shape=xor;whiteSpace=wrap;html=1;" vertex="1" parent="1">
          <mxGeometry x="220" y="420" width="60" height="80" as="geometry" />
        </mxCell>
        <mxCell id="fppiFULrpzGowXoUiGGQ-106" value="" style="edgeStyle=orthogonalEdgeStyle;rounded=0;orthogonalLoop=1;jettySize=auto;html=1;exitX=0.475;exitY=0.979;exitDx=0;exitDy=0;exitPerimeter=0;entryDx=0;entryDy=0;entryPerimeter=0;" edge="1" parent="1" target="fppiFULrpzGowXoUiGGQ-99">
          <mxGeometry relative="1" as="geometry">
            <mxPoint x="171" y="171" as="sourcePoint" />
            <mxPoint x="211" y="300" as="targetPoint" />
            <Array as="points" />
          </mxGeometry>
        </mxCell>
        <mxCell id="fppiFULrpzGowXoUiGGQ-99" value="" style="shape=waypoint;sketch=0;size=6;pointerEvents=1;points=[];fillColor=none;resizable=0;rotatable=0;perimeter=centerPerimeter;snapToPoint=1;" vertex="1" parent="1">
          <mxGeometry x="170" y="290" width="20" height="20" as="geometry" />
        </mxCell>
        <mxCell id="fppiFULrpzGowXoUiGGQ-107" value="" style="edgeStyle=orthogonalEdgeStyle;rounded=0;orthogonalLoop=1;jettySize=auto;html=1;exitX=0.142;exitY=1.188;exitDx=0;exitDy=0;exitPerimeter=0;entryDx=0;entryDy=0;entryPerimeter=0;" edge="1" parent="1" source="fppiFULrpzGowXoUiGGQ-98" target="fppiFULrpzGowXoUiGGQ-100">
          <mxGeometry relative="1" as="geometry">
            <mxPoint x="150" y="211" as="sourcePoint" />
            <mxPoint x="220" y="340" as="targetPoint" />
            <Array as="points" />
          </mxGeometry>
        </mxCell>
        <mxCell id="fppiFULrpzGowXoUiGGQ-100" value="" style="shape=waypoint;sketch=0;size=6;pointerEvents=1;points=[];fillColor=none;resizable=0;rotatable=0;perimeter=centerPerimeter;snapToPoint=1;" vertex="1" parent="1">
          <mxGeometry x="140" y="330" width="20" height="20" as="geometry" />
        </mxCell>
        <mxCell id="fppiFULrpzGowXoUiGGQ-108" style="edgeStyle=orthogonalEdgeStyle;rounded=0;orthogonalLoop=1;jettySize=auto;html=1;exitX=0.85;exitY=1.362;exitDx=0;exitDy=0;exitPerimeter=0;entryX=0.175;entryY=0.25;entryDx=0;entryDy=0;entryPerimeter=0;" edge="1" parent="1" source="fppiFULrpzGowXoUiGGQ-99" target="fppiFULrpzGowXoUiGGQ-105">
          <mxGeometry relative="1" as="geometry">
            <Array as="points">
              <mxPoint x="180" y="440" />
            </Array>
          </mxGeometry>
        </mxCell>
        <mxCell id="fppiFULrpzGowXoUiGGQ-109" style="edgeStyle=orthogonalEdgeStyle;rounded=0;orthogonalLoop=1;jettySize=auto;html=1;exitX=0.183;exitY=0.904;exitDx=0;exitDy=0;exitPerimeter=0;entryX=0.175;entryY=0.75;entryDx=0;entryDy=0;entryPerimeter=0;" edge="1" parent="1" source="fppiFULrpzGowXoUiGGQ-100" target="fppiFULrpzGowXoUiGGQ-105">
          <mxGeometry relative="1" as="geometry">
            <Array as="points">
              <mxPoint x="150" y="480" />
            </Array>
          </mxGeometry>
        </mxCell>
        <mxCell id="fppiFULrpzGowXoUiGGQ-120" style="edgeStyle=orthogonalEdgeStyle;rounded=0;orthogonalLoop=1;jettySize=auto;html=1;exitX=1;exitY=0.5;exitDx=0;exitDy=0;exitPerimeter=0;entryX=0.175;entryY=0.75;entryDx=0;entryDy=0;entryPerimeter=0;" edge="1" parent="1" source="fppiFULrpzGowXoUiGGQ-105" target="fppiFULrpzGowXoUiGGQ-83">
          <mxGeometry relative="1" as="geometry" />
        </mxCell>
        <mxCell id="fppiFULrpzGowXoUiGGQ-126" style="edgeStyle=orthogonalEdgeStyle;rounded=0;orthogonalLoop=1;jettySize=auto;html=1;exitX=1;exitY=0.5;exitDx=0;exitDy=0;exitPerimeter=0;" edge="1" parent="1" source="fppiFULrpzGowXoUiGGQ-121">
          <mxGeometry relative="1" as="geometry">
            <mxPoint x="760" y="231" as="targetPoint" />
          </mxGeometry>
        </mxCell>
        <mxCell id="fppiFULrpzGowXoUiGGQ-121" value="AND" style="shape=or;whiteSpace=wrap;html=1;" vertex="1" parent="1">
          <mxGeometry x="620" y="191" width="60" height="80" as="geometry" />
        </mxCell>
        <mxCell id="fppiFULrpzGowXoUiGGQ-123" value="" style="edgeStyle=orthogonalEdgeStyle;rounded=0;orthogonalLoop=1;jettySize=auto;html=1;exitX=1;exitY=0.5;exitDx=0;exitDy=0;exitPerimeter=0;entryDx=0;entryDy=0;entryPerimeter=0;" edge="1" parent="1" target="fppiFULrpzGowXoUiGGQ-122">
          <mxGeometry relative="1" as="geometry">
            <mxPoint x="501.25" y="70" as="targetPoint" />
            <mxPoint x="315" y="194" as="sourcePoint" />
            <Array as="points" />
          </mxGeometry>
        </mxCell>
        <mxCell id="fppiFULrpzGowXoUiGGQ-122" value="" style="shape=waypoint;sketch=0;size=6;pointerEvents=1;points=[];fillColor=none;resizable=0;rotatable=0;perimeter=centerPerimeter;snapToPoint=1;" vertex="1" parent="1">
          <mxGeometry x="400" y="181" width="20" height="20" as="geometry" />
        </mxCell>
        <mxCell id="fppiFULrpzGowXoUiGGQ-124" style="edgeStyle=orthogonalEdgeStyle;rounded=0;orthogonalLoop=1;jettySize=auto;html=1;exitX=1.017;exitY=0.271;exitDx=0;exitDy=0;exitPerimeter=0;entryX=0;entryY=0.25;entryDx=0;entryDy=0;entryPerimeter=0;" edge="1" parent="1" source="fppiFULrpzGowXoUiGGQ-122" target="fppiFULrpzGowXoUiGGQ-121">
          <mxGeometry relative="1" as="geometry">
            <Array as="points">
              <mxPoint x="410" y="211" />
            </Array>
          </mxGeometry>
        </mxCell>
        <mxCell id="fppiFULrpzGowXoUiGGQ-125" style="edgeStyle=orthogonalEdgeStyle;rounded=0;orthogonalLoop=1;jettySize=auto;html=1;exitX=1;exitY=0.5;exitDx=0;exitDy=0;exitPerimeter=0;entryX=0;entryY=0.75;entryDx=0;entryDy=0;entryPerimeter=0;" edge="1" parent="1" source="fppiFULrpzGowXoUiGGQ-83" target="fppiFULrpzGowXoUiGGQ-121">
          <mxGeometry relative="1" as="geometry" />
        </mxCell>
        <mxCell id="fppiFULrpzGowXoUiGGQ-128" value="&lt;b&gt;&lt;font style=&quot;font-size: 24px;&quot;&gt;y&lt;/font&gt;&lt;/b&gt;" style="text;html=1;align=center;verticalAlign=middle;resizable=0;points=[];autosize=1;strokeColor=none;fillColor=none;" vertex="1" parent="1">
          <mxGeometry x="756" y="207" width="40" height="40" as="geometry" />
        </mxCell>
        <mxCell id="fppiFULrpzGowXoUiGGQ-129" value="&lt;b&gt;&lt;font style=&quot;font-size: 24px;&quot;&gt;x&lt;/font&gt;&lt;/b&gt;" style="text;html=1;align=center;verticalAlign=middle;resizable=0;points=[];autosize=1;strokeColor=none;fillColor=none;" vertex="1" parent="1">
          <mxGeometry x="668" y="43" width="40" height="40" as="geometry" />
        </mxCell>
      </root>
    </mxGraphModel>
  </diagram>
</mxfile>
